<?xml version="1.0" encoding="UTF-8"?><svg id="Layer_2" xmlns="http://www.w3.org/2000/svg" viewBox="0 0 387.27 38.21"><g id="Layer_1-2"><path d="M33.58,32.6c-7.81,7.85-23.42,7.38-30.19-1.58C-4.12,20.44,1.36,3.12,14.77.92c6.45-1.33,13.27.43,18.02,5.05.5,1.13-1.59,2.52-2.33,3.22-1.08.86-1.88,2.74-3.32,2.97C9.78.3,2.09,29.5,20.17,29.63c9.43-2.05,5.92-7.77,13.41,2.97Z"/><path d="M77.25,35.72l.15.69c-.72,1.47-2.81.72-4.11.74-1.58-.19-4.41.43-5.94,0-.82-.89-1.64-4.66-2.43-5.59-4.88-.6-10.32-.44-15.25-.45-1.9-.02-1.99,3.9-2.77,5.1-.81,1.58-3.55.64-4.95.74-1.46-.3-4.62,1.06-5.49-.59,4.05-11.67,10.28-22.91,14.95-34.4,1.8-.97,5.37-.38,7.38-.54.94.09,2.95-.2,3.66.59,4.56,11.31,9.94,22.5,14.8,33.71ZM60.71,21.76c-1.4-3.8-3.23-14.51-6.29-4.8-.34,1.3-2.05,4.02-1.58,5.4.77.56,3.46.29,4.36.35.98-.01,3.39.64,3.51-.94Z"/><path d="M111.06,26.02c-.59,14.92-23.68,15.25-31.33,5.84-.13-1.1,1.64-2.12,2.28-2.87,1.94-2.65,2.36-4.41,5.45-1.63,3.55,2.21,8.74,2.88,12.52.94,4.6-6.47-8.25-4.64-11.29-6.44-9.66-1.96-10.89-15.95-1.78-19.65,6.86-2.75,15.63-2.15,21.58,2.43.2,1-3.6,6.24-4.65,6.44-.51-.01-1.15-.5-1.58-.74-2.93-1.26-12.2-3.38-11.48,2.08,2.53,4.09,19.62.26,20.3,13.61Z"/><path d="M126.65,29.23c-.22,2.34-.04,5.5-.4,7.77-.68.36-2.85.11-3.61.15-1.56-.1-4.6.26-5.99-.45-.31-11.58-.34-23.52-.2-35.09,2.94-.56,6.76-.33,9.8-.25.89,9.11-.13,18.72.4,27.87Z"/><path d="M167.05,9.14c-.14,8.22.31,17.45,0,25.64.09,3.21-3.51,2.22-5.59,2.52-3.83.35-3.74-.64-5.49-3.51-4.04-4.73-7.57-10.34-11.68-15l-.35.15c-.63,4.31.15,9.12-.3,13.46-.13,1.48,1.49,4.72-1.04,4.75-1.18.19-3.12.02-4.31.05-4.02.06-5.3,1.02-4.75-3.86.23-10.43-.25-21.37.35-31.68,2.19-.68,5.88-.11,8.12-.2,5.3,5.57,9.65,12.41,14.55,18.32l.4.05.35-.25c-.14-1.59-.57-3.89-.25-5.54.02-4-.57-8.65.15-12.52,1.46-.72,3.67-.09,5.25-.2,7.07-1.15,4.52,3.06,4.6,7.82Z"/><path d="M212.34,18.84c-.48,30.95-50.07,21.9-38.11-7.77,7.81-17.17,38.84-12.58,38.11,7.77ZM200.27,25.28c4.34-6.27.2-17.16-8.22-16.14-7.61.07-11.08,7.78-8.56,14.35,2.8,6.51,12.88,8.06,16.78,1.78Z"/><path d="M249.01,0h-25.48c-3.46,0-6.26,2.8-6.26,6.26v25.48c0,3.46,2.8,6.26,6.26,6.26h25.48c3.46,0,6.26-2.8,6.26-6.26V6.26c0-3.46-2.8-6.26-6.26-6.26ZM246.07,30.04c-.02,2.38-6.19.39-7.81.94-2.18.28-5.23.04-7.41.07-.93-.04-2.58.47-3.27-.33.11-7.2.14-14.89-.1-22.14-.43-2.39,2.39-1.44,3.81-1.54.57.12,2.83-.39,3.1.33.02,5.76.09,11.95,0,17.69.27.68,2.15.35,2.77.37,2.1.03,5.99-.1,8.05-.27,1.21.01.66,2.05.8,2.77.03.59.14,1.51.07,2.1Z"/><path d="M281.66,18.02c-.91-3.49-2.01-4.82-3.37-.53-.23.88-1.38,2.71-1.07,3.64.52.38,2.33.19,2.94.23,3.43.59,2.14-1.22,1.5-3.34Z"/><path d="M293.01,0h-25.48c-3.46,0-6.26,2.8-6.26,6.26v25.48c0,3.46,2.8,6.26,6.26,6.26h25.48c3.46,0,6.26-2.8,6.26-6.26V6.26c0-3.46-2.8-6.26-6.26-6.26ZM293.55,30.98c-1.86.39-4.6.16-6.54.13-.55-.6-1.1-3.14-1.64-3.77-3.49-.24-7.56-.68-10.98-.07-.53.87-.79,2.92-1.54,3.64-.62.38-2.27.03-2.97.07-.99-.2-3.12.72-3.71-.4,2.73-7.87,6.93-15.45,10.08-23.2,1.21-.65,3.62-.26,4.97-.37.63.06,1.99-.13,2.47.4,3.05,7.8,7.01,15.41,10.08,23.2l-.23.37Z"/><path d="M321.28,15.79c1.27.88,3.62.06,5.17.47,1.98.45,3.5-2.28,1.57-3.37-2.93-.41-8.06-1.94-6.74,2.9Z"/><path d="M329.46,22.76c-1.49-2.76-5.55-1.51-8.08-1.37-.31.69-.02,1.66-.1,2.4-.03.58-.32,1.64.37,1.94,2.34-.23,9.01,1.32,7.81-2.97Z"/><path d="M337.01,0h-25.48c-3.46,0-6.26,2.8-6.26,6.26v25.48c0,3.46,2.8,6.26,6.26,6.26h25.48c3.46,0,6.26-2.8,6.26-6.26V6.26c0-3.46-2.8-6.26-6.26-6.26ZM336.31,24.27c-1.2,9.62-13.57,6.18-20.3,6.78-2.62.2-1.16-3.27-1.37-4.88-.17-6.24.05-12.66-.03-18.86,5.48-.54,12.09-.91,17.43.67,3.98,1.81,4.95,7.62,1.54,10.38,1.37,1.67,3.04,3.53,2.74,5.91Z"/><path d="M381.01,0h-25.48c-3.46,0-6.26,2.8-6.26,6.26v25.48c0,3.46,2.8,6.26,6.26,6.26h25.48c3.46,0,6.26-2.8,6.26-6.26V6.26c0-3.46-2.8-6.26-6.26-6.26ZM378.94,24.17c-.86,9.5-16.62,9.72-21.13,3.14.26-.59,1.12-1.26,1.57-1.7.6-.66,1.02-1.78,1.87-2.17,2.85,1.87,6.38,3.27,9.82,1.97,4.6-4.59-6.15-3.38-8.18-5.01-3.16-1.44-4.31-2.82-4.37-6.38.15-9.04,13.25-9.19,18.73-4.84-.39,1.49-1.86,3.47-3.14,4.34-.77-.19-1.5-.8-2.3-.97-1.72-.42-5.74-1.22-6.54.9-.99,4.3,14.15.33,13.69,10.72Z"/></g></svg>