<?xml version="1.0" encoding="UTF-8"?><svg id="Layer_2" xmlns="http://www.w3.org/2000/svg" viewBox="0 0 82 82"><g id="Layer_1-2"><path d="M31.74,0H6.26C2.8,0,0,2.8,0,6.26v25.48c0,3.46,2.8,6.26,6.26,6.26h25.48c3.46,0,6.26-2.8,6.26-6.26V6.26c0-3.46-2.8-6.26-6.26-6.26ZM28.8,30.04c-.02,2.38-6.19.39-7.81.94-2.18.28-5.23.04-7.41.07-.93-.04-2.58.47-3.27-.33.11-7.2.14-14.89-.1-22.14-.43-2.39,2.39-1.44,3.81-1.54.57.12,2.83-.39,3.1.33.02,5.76.09,11.95,0,17.69.27.68,2.15.35,2.77.37,2.1.03,5.99-.1,8.05-.27,1.21.01.66,2.05.8,2.77.03.59.14,1.51.07,2.1Z"/><path d="M64.39,18.02c-.91-3.49-2.01-4.82-3.37-.53-.23.88-1.38,2.71-1.07,3.64.52.38,2.33.19,2.94.23,3.43.59,2.14-1.22,1.5-3.34Z"/><path d="M75.74,0h-25.48c-3.46,0-6.26,2.8-6.26,6.26v25.48c0,3.46,2.8,6.26,6.26,6.26h25.48c3.46,0,6.26-2.8,6.26-6.26V6.26c0-3.46-2.8-6.26-6.26-6.26ZM76.28,30.98c-1.86.39-4.6.16-6.54.13-.55-.6-1.1-3.14-1.64-3.77-3.49-.24-7.56-.68-10.98-.07-.53.87-.79,2.92-1.54,3.64-.62.38-2.27.03-2.97.07-.99-.2-3.12.72-3.71-.4,2.73-7.87,6.93-15.45,10.08-23.2,1.21-.65,3.62-.26,4.97-.37.63.06,1.99-.13,2.47.4,3.05,7.8,7.01,15.41,10.08,23.2l-.23.37Z"/><path d="M16.01,59.79c1.27.88,3.62.06,5.17.47,1.98.45,3.5-2.28,1.57-3.37-2.93-.41-8.06-1.94-6.74,2.9Z"/><path d="M24.19,66.76c-1.49-2.76-5.55-1.51-8.08-1.37-.31.69-.02,1.66-.1,2.4-.03.58-.32,1.64.37,1.94,2.34-.23,9.01,1.32,7.81-2.97Z"/><path d="M31.74,44H6.26c-3.46,0-6.26,2.8-6.26,6.26v25.48c0,3.46,2.8,6.26,6.26,6.26h25.48c3.46,0,6.26-2.8,6.26-6.26v-25.48c0-3.46-2.8-6.26-6.26-6.26ZM31.04,68.27c-1.2,9.62-13.57,6.18-20.3,6.78-2.62.2-1.16-3.27-1.37-4.88-.17-6.24.05-12.66-.03-18.86,5.48-.54,12.09-.91,17.43.67,3.98,1.81,4.95,7.62,1.54,10.38,1.37,1.67,3.04,3.53,2.74,5.91Z"/><path d="M75.74,44h-25.48c-3.46,0-6.26,2.8-6.26,6.26v25.48c0,3.46,2.8,6.26,6.26,6.26h25.48c3.46,0,6.26-2.8,6.26-6.26v-25.48c0-3.46-2.8-6.26-6.26-6.26ZM73.67,68.17c-.86,9.5-16.62,9.72-21.13,3.14.26-.59,1.12-1.26,1.57-1.7.6-.66,1.02-1.78,1.87-2.17,2.85,1.87,6.38,3.27,9.82,1.97,4.6-4.59-6.15-3.38-8.18-5.01-3.16-1.44-4.31-2.82-4.37-6.38.15-9.04,13.25-9.19,18.73-4.84-.39,1.49-1.86,3.47-3.14,4.34-.77-.19-1.5-.8-2.3-.97-1.72-.42-5.74-1.22-6.54.9-.99,4.3,14.15.33,13.69,10.72Z"/></g></svg>